# xmcd
#
# Track frame offsets:
#	150
#	16311
#	33154
#	49633
#	66520
#	81403
#	97242
#
# Disc length: 1477 seconds
#
# Revision: 0
# Processed by: cddbd v1.4PL0 Copyright (c) Steve Scherf et al.
# Submitted via: dBpowerAMP V4.0
#
DISCID=5905c307
DTITLE=Rambler - Dreamin'
DYEAR=1999
DGENRE=Country
TTITLE0=Dreamin'
TTITLE1=1989 Memory Lane
TTITLE2=It's Me
TTITLE3=Your Memory Sure Does Get Around
TTITLE4=Words
TTITLE5=Talk of the Town
TTITLE6=Story of My Life
EXTD=
EXTT0=
EXTT1=
EXTT2=
EXTT3=
EXTT4=
EXTT5=
EXTT6=
PLAYORDER=
